<svg width="51" height="38" viewBox="0 0 51 38" fill="none" xmlns="http://www.w3.org/2000/svg">
<g clip-path="url(#clip0_2872_2301)">
<path d="M0 0H51V38H0V0Z" fill="#012169"/>
<path d="M5.97656 0L25.4203 14.3292L44.7844 0H51V4.90833L31.875 19.0792L51 33.1708V38H44.625L25.5 23.8292L6.45469 38H0V33.25L19.0453 19.1583L0 5.06667V0H5.97656Z" fill="white"/>
<path d="M33.7875 22.2458L51 34.8333V38L29.4047 22.2458H33.7875ZM19.125 23.8292L19.6031 26.6L4.30312 38H0L19.125 23.8292ZM51 0V0.2375L31.1578 15.1208L31.3172 11.6375L47.0156 0H51ZM0 0L19.0453 13.9333H14.2641L0 3.325V0Z" fill="#C8102E"/>
<path d="M19.2047 0V38H31.9547V0H19.2047ZM0 12.6667V25.3333H51V12.6667H0Z" fill="white"/>
<path d="M0 15.2792V22.8792H51V15.2792H0ZM21.7547 0V38H29.4047V0H21.7547Z" fill="#C8102E"/>
</g>
<defs>
<clipPath id="clip0_2872_2301">
<rect width="51" height="38" rx="4" fill="white"/>
</clipPath>
</defs>
</svg>
